<svg xmlns="http://www.w3.org/2000/svg" xmlns:xlink="http://www.w3.org/1999/xlink" width="500" zoomAndPan="magnify" viewBox="0 0 375 374.999991" height="500" preserveAspectRatio="xMidYMid meet" version="1.0"><defs><g/><clipPath id="e577f0064d"><path d="M 121.890625 96.089844 L 250.890625 96.089844 L 250.890625 224 L 121.890625 224 Z M 121.890625 96.089844 " clip-rule="nonzero"/></clipPath><clipPath id="a03bb72fa1"><path d="M 121.890625 105 L 250 105 L 250 221 L 121.890625 221 Z M 121.890625 105 " clip-rule="nonzero"/></clipPath><clipPath id="1ba6834c06"><path d="M 163 96.089844 L 196 96.089844 L 196 113 L 163 113 Z M 163 96.089844 " clip-rule="nonzero"/></clipPath><clipPath id="636e934861"><path d="M 150 155 L 193 155 L 193 197.84375 L 150 197.84375 Z M 150 155 " clip-rule="nonzero"/></clipPath><clipPath id="5f021c37c5"><path d="M 186 159 L 225 159 L 225 197.84375 L 186 197.84375 Z M 186 159 " clip-rule="nonzero"/></clipPath></defs><rect x="-37.5" width="450" fill="#ffffff" y="-37.499999" height="449.999989" fill-opacity="1"/><rect x="-37.5" width="450" fill="#ffffff" y="-37.499999" height="449.999989" fill-opacity="1"/><g clip-path="url(#e577f0064d)"><path fill="#b86025" d="M 121.90625 160.222656 C 122.332031 141.457031 129.25 125.566406 143.140625 112.859375 C 151.523438 105.1875 161.375 100.21875 172.457031 97.714844 C 175.164062 97.101562 177.90625 96.707031 180.667969 96.449219 C 183.832031 96.15625 186.996094 96.09375 190.164062 96.273438 C 196.347656 96.632812 202.359375 97.847656 208.203125 99.917969 C 225.851562 106.179688 239.894531 119.863281 246.542969 137.285156 C 248.402344 142.152344 249.648438 147.175781 250.265625 152.347656 C 250.746094 156.328125 250.851562 160.324219 250.558594 164.328125 C 249.769531 175.152344 246.5 185.167969 240.601562 194.269531 C 231.929688 207.664062 219.867188 216.621094 204.625 221.292969 C 200.542969 222.542969 196.363281 223.316406 192.113281 223.710938 C 188.117188 224.078125 184.121094 224.113281 180.128906 223.703125 C 163.132812 221.941406 148.921875 214.710938 137.566406 201.929688 C 136.410156 200.625 135.328125 199.25 134.296875 197.847656 C 128.550781 190.054688 124.824219 181.378906 123.019531 171.875 C 122.289062 168.03125 121.945312 164.148438 121.90625 160.222656 " fill-opacity="1" fill-rule="nonzero"/></g><g clip-path="url(#a03bb72fa1)"><path fill="#b86025" d="M 249.445312 172.308594 C 249.320312 172.757812 249.210938 173.128906 249.109375 173.503906 C 248.460938 175.871094 247.828125 178.242188 247.160156 180.601562 C 246.9375 181.382812 246.609375 182.128906 246.363281 182.902344 C 246.226562 183.320312 245.984375 183.523438 245.539062 183.617188 C 243.117188 184.136719 240.75 184.859375 238.484375 185.867188 C 236.914062 186.566406 235.347656 187.300781 233.859375 188.160156 C 230.171875 190.285156 226.511719 192.457031 222.882812 194.679688 C 218.914062 197.109375 215.03125 199.675781 211.042969 202.074219 C 206.738281 204.667969 202.417969 207.25 197.882812 209.433594 C 192.90625 211.828125 187.910156 214.183594 182.730469 216.113281 C 178.652344 217.632812 174.53125 219.039062 170.285156 220.035156 C 168.960938 220.347656 167.601562 220.519531 166.253906 220.722656 C 165.953125 220.765625 165.617188 220.714844 165.328125 220.617188 C 158.871094 218.464844 152.929688 215.320312 147.472656 211.257812 C 144.460938 209.015625 141.671875 206.523438 139.109375 203.785156 C 138.867188 203.523438 138.742188 203.242188 138.671875 202.898438 C 138.15625 200.324219 138.195312 197.742188 138.625 195.160156 C 139.367188 190.679688 141.058594 186.574219 143.519531 182.769531 C 145.730469 179.363281 148.320312 176.289062 151.285156 173.503906 C 154.796875 170.199219 158.558594 167.203125 162.324219 164.203125 C 165.8125 161.417969 169.550781 158.996094 173.230469 156.484375 C 178.597656 152.820312 184.207031 149.539062 189.695312 146.070312 C 193.027344 143.964844 196.378906 141.890625 199.65625 139.707031 C 202.773438 137.628906 205.75 135.355469 208.539062 132.851562 C 210.183594 131.375 211.644531 129.738281 212.9375 127.949219 C 214.1875 126.207031 215.121094 124.316406 215.511719 122.195312 C 215.617188 121.617188 215.652344 121.011719 215.617188 120.425781 C 215.53125 119.003906 214.851562 117.90625 213.65625 117.136719 C 212.507812 116.394531 211.226562 116.003906 209.898438 115.734375 C 207.550781 115.261719 205.207031 115.386719 202.871094 115.800781 C 196.519531 116.933594 190.46875 119.007812 184.589844 121.621094 C 175.050781 125.863281 166 130.992188 157.292969 136.734375 C 152.878906 139.648438 148.460938 142.550781 144.175781 145.652344 C 138.191406 149.988281 132.347656 154.507812 126.679688 159.253906 C 125.296875 160.410156 123.976562 161.636719 122.625 162.832031 C 122.449219 162.988281 122.269531 163.136719 122.03125 163.339844 C 121.992188 163.160156 121.941406 163.042969 121.941406 162.921875 C 121.949219 160.902344 121.910156 158.878906 121.984375 156.863281 C 122.078125 154.289062 122.433594 151.738281 122.851562 149.195312 C 123.097656 147.691406 123.050781 147.660156 124.242188 146.660156 C 127.566406 143.871094 131.003906 141.234375 134.578125 138.769531 C 140.710938 134.539062 147.027344 130.597656 153.3125 126.609375 C 157.53125 123.929688 162 121.707031 166.457031 119.472656 C 173.277344 116.050781 180.253906 113.011719 187.402344 110.351562 C 192.761719 108.359375 198.253906 106.875 203.882812 105.90625 C 206.894531 105.390625 209.921875 105.039062 212.984375 105.171875 C 216.257812 105.3125 219.421875 105.964844 222.449219 107.234375 C 222.753906 107.363281 223.050781 107.535156 223.324219 107.726562 C 225.417969 109.167969 227.40625 110.734375 229.296875 112.429688 C 229.613281 112.71875 229.902344 113.0625 230.132812 113.421875 C 231.820312 116.066406 232.136719 118.90625 231.339844 121.917969 C 230.746094 124.164062 229.8125 126.246094 228.46875 128.136719 C 226.199219 131.324219 223.652344 134.261719 220.871094 137.019531 C 216.039062 141.804688 210.695312 145.960938 205.285156 150.039062 C 202.359375 152.246094 199.398438 154.402344 196.4375 156.558594 C 191.296875 160.300781 186.316406 164.265625 181.03125 167.800781 C 176.484375 170.84375 172.050781 174.035156 167.691406 177.332031 C 164.261719 179.929688 160.964844 182.691406 157.949219 185.769531 C 156.1875 187.566406 154.597656 189.519531 153.132812 191.570312 C 151.804688 193.421875 150.792969 195.429688 150.289062 197.664062 C 150.132812 198.351562 150.039062 199.074219 150.039062 199.78125 C 150.03125 201.953125 151.007812 203.617188 152.824219 204.785156 C 153.980469 205.523438 155.277344 205.882812 156.617188 206.085938 C 158.980469 206.445312 161.355469 206.414062 163.730469 206.234375 C 165.703125 206.085938 167.671875 205.878906 169.636719 205.628906 C 173.144531 205.1875 176.53125 204.246094 179.894531 203.171875 C 185.566406 201.359375 190.988281 198.964844 196.292969 196.273438 C 200.457031 194.160156 204.546875 191.902344 208.609375 189.601562 C 213.363281 186.910156 218.105469 184.191406 222.878906 181.535156 C 227.171875 179.148438 231.5625 176.957031 236.171875 175.234375 C 239.011719 174.175781 241.898438 173.261719 244.894531 172.753906 C 246.179688 172.535156 247.488281 172.449219 248.785156 172.308594 C 248.976562 172.289062 249.171875 172.308594 249.445312 172.308594 " fill-opacity="1" fill-rule="nonzero"/></g><path fill="#b86025" d="M 245.480469 134.933594 C 246.644531 136.9375 249.25 145.335938 249.363281 147.433594 C 249.15625 147.488281 248.933594 147.542969 248.710938 147.597656 C 245.046875 148.476562 241.464844 149.589844 238.027344 151.152344 C 233.933594 153.015625 230.230469 155.476562 226.957031 158.542969 C 224.050781 161.265625 221.222656 164.066406 218.40625 166.882812 C 214.550781 170.734375 210.660156 174.546875 206.527344 178.101562 C 201.324219 182.578125 195.703125 186.429688 189.367188 189.160156 C 187.15625 190.109375 184.894531 190.867188 182.496094 191.164062 C 180.597656 191.402344 178.703125 191.472656 176.832031 190.984375 C 176.488281 190.898438 176.148438 190.777344 175.824219 190.636719 C 173.914062 189.800781 173.078125 188.226562 173.433594 186.167969 C 173.617188 185.101562 173.964844 184.085938 174.546875 183.179688 C 175.222656 182.136719 175.925781 181.097656 176.707031 180.128906 C 179.054688 177.207031 181.855469 174.765625 184.84375 172.519531 C 188.601562 169.695312 192.558594 167.183594 196.558594 164.726562 C 201.859375 161.464844 207.378906 158.605469 212.867188 155.691406 C 216.820312 153.589844 220.796875 151.542969 224.695312 149.351562 C 228.441406 147.246094 232.164062 145.085938 235.65625 142.578125 C 238.277344 140.695312 240.78125 138.652344 243.332031 136.675781 C 244.050781 136.117188 244.746094 135.53125 245.480469 134.933594 " fill-opacity="1" fill-rule="nonzero"/><path fill="#b86025" d="M 129.761719 190.855469 C 129.511719 190.390625 129.25 189.929688 129.003906 189.460938 C 126.382812 184.410156 124.5 179.09375 123.273438 173.535156 C 123.175781 173.089844 123.199219 172.738281 123.574219 172.421875 C 123.886719 172.152344 124.148438 171.820312 124.449219 171.535156 C 131.269531 165.019531 138.28125 158.726562 145.730469 152.929688 C 149.144531 150.273438 152.808594 147.996094 156.539062 145.816406 C 159.5625 144.050781 162.59375 142.292969 165.804688 140.875 C 167.925781 139.941406 170.074219 139.082031 172.359375 138.625 C 174.179688 138.261719 176.011719 138.105469 177.832031 138.578125 C 178.324219 138.703125 178.8125 138.914062 179.242188 139.179688 C 180.023438 139.667969 180.28125 140.441406 180.066406 141.34375 C 179.917969 141.976562 179.597656 142.515625 179.214844 143.027344 C 178.484375 144 177.613281 144.835938 176.679688 145.605469 C 173.234375 148.445312 169.625 151.039062 165.769531 153.300781 C 161.550781 155.773438 157.351562 158.273438 153.175781 160.820312 C 148.84375 163.464844 144.796875 166.523438 140.894531 169.761719 C 138.507812 171.742188 136.433594 174.039062 134.578125 176.519531 C 132.03125 179.921875 130.480469 183.730469 130.09375 187.980469 C 130.007812 188.929688 129.941406 189.875 129.863281 190.820312 C 129.828125 190.832031 129.796875 190.84375 129.761719 190.855469 " fill-opacity="1" fill-rule="nonzero"/><path fill="#b86025" d="M 198.949219 222.765625 C 198.53125 221.992188 198.5625 221.277344 198.773438 220.550781 C 199.078125 219.492188 199.628906 218.554688 200.269531 217.667969 C 201.339844 216.207031 202.621094 214.9375 203.976562 213.746094 C 205.5 212.410156 207.152344 211.25 208.949219 210.3125 C 213.492188 207.941406 218.21875 206.035156 223.207031 204.832031 C 226.421875 204.058594 229.679688 203.492188 232.984375 203.265625 C 233.15625 203.253906 233.335938 203.261719 233.515625 203.261719 C 232.949219 204.4375 227.085938 209.644531 223.480469 212.183594 C 219.8125 214.765625 215.925781 216.957031 211.800781 218.734375 C 207.664062 220.511719 203.390625 221.832031 198.949219 222.765625 " fill-opacity="1" fill-rule="nonzero"/><g clip-path="url(#1ba6834c06)"><path fill="#b86025" d="M 195.515625 96.9375 C 195.421875 97.003906 195.328125 97.074219 195.230469 97.136719 C 193.023438 98.609375 190.804688 100.066406 188.605469 101.554688 C 184.945312 104.027344 181.160156 106.300781 177.289062 108.429688 C 174.308594 110.066406 171.144531 111.246094 167.851562 112.097656 C 167.066406 112.300781 166.273438 112.464844 165.449219 112.316406 C 164.179688 112.085938 163.554688 111.183594 163.890625 109.949219 C 164.03125 109.421875 164.28125 108.910156 164.554688 108.433594 C 164.890625 107.851562 165.277344 107.292969 165.695312 106.769531 C 168.019531 103.84375 170.539062 101.113281 173.523438 98.839844 C 174.105469 98.394531 174.679688 97.933594 175.230469 97.449219 C 175.523438 97.191406 175.847656 97.03125 176.226562 96.984375 C 177.542969 96.816406 178.855469 96.601562 180.175781 96.496094 C 182.070312 96.347656 183.96875 96.230469 185.867188 96.191406 C 188.382812 96.132812 190.898438 96.265625 193.398438 96.558594 C 194.105469 96.640625 194.808594 96.726562 195.515625 96.808594 C 195.515625 96.851562 195.515625 96.894531 195.515625 96.9375 " fill-opacity="1" fill-rule="nonzero"/></g><g fill="#313133" fill-opacity="1"><g transform="translate(89.475464, 270.139744)"><g><path d="M 7.890625 -19.671875 L 0.140625 -19.671875 L 0.140625 -24.234375 L 21.265625 -24.234375 L 21.265625 -19.671875 L 13.5 -19.671875 L 13.5 0 L 7.890625 0 Z M 7.890625 -19.671875 "/></g></g></g><g fill="#313133" fill-opacity="1"><g transform="translate(110.868842, 270.139744)"><g><path d="M 11.359375 0.28125 C 9.390625 0.28125 7.625 -0.128906 6.0625 -0.953125 C 4.507812 -1.773438 3.296875 -2.910156 2.421875 -4.359375 C 1.546875 -5.816406 1.109375 -7.46875 1.109375 -9.3125 C 1.109375 -11.15625 1.546875 -12.804688 2.421875 -14.265625 C 3.296875 -15.722656 4.507812 -16.859375 6.0625 -17.671875 C 7.625 -18.492188 9.390625 -18.90625 11.359375 -18.90625 C 13.316406 -18.90625 15.066406 -18.492188 16.609375 -17.671875 C 18.160156 -16.859375 19.375 -15.722656 20.25 -14.265625 C 21.132812 -12.804688 21.578125 -11.15625 21.578125 -9.3125 C 21.578125 -7.46875 21.132812 -5.816406 20.25 -4.359375 C 19.375 -2.910156 18.160156 -1.773438 16.609375 -0.953125 C 15.066406 -0.128906 13.316406 0.28125 11.359375 0.28125 Z M 11.359375 -4.15625 C 12.742188 -4.15625 13.878906 -4.617188 14.765625 -5.546875 C 15.648438 -6.484375 16.09375 -7.738281 16.09375 -9.3125 C 16.09375 -10.882812 15.648438 -12.132812 14.765625 -13.0625 C 13.878906 -14 12.742188 -14.46875 11.359375 -14.46875 C 9.972656 -14.46875 8.828125 -14 7.921875 -13.0625 C 7.023438 -12.132812 6.578125 -10.882812 6.578125 -9.3125 C 6.578125 -7.738281 7.023438 -6.484375 7.921875 -5.546875 C 8.828125 -4.617188 9.972656 -4.15625 11.359375 -4.15625 Z M 11.359375 -4.15625 "/></g></g></g><g fill="#313133" fill-opacity="1"><g transform="translate(133.543055, 270.139744)"><g><path d="M 11.359375 0.28125 C 9.390625 0.28125 7.625 -0.128906 6.0625 -0.953125 C 4.507812 -1.773438 3.296875 -2.910156 2.421875 -4.359375 C 1.546875 -5.816406 1.109375 -7.46875 1.109375 -9.3125 C 1.109375 -11.15625 1.546875 -12.804688 2.421875 -14.265625 C 3.296875 -15.722656 4.507812 -16.859375 6.0625 -17.671875 C 7.625 -18.492188 9.390625 -18.90625 11.359375 -18.90625 C 13.316406 -18.90625 15.066406 -18.492188 16.609375 -17.671875 C 18.160156 -16.859375 19.375 -15.722656 20.25 -14.265625 C 21.132812 -12.804688 21.578125 -11.15625 21.578125 -9.3125 C 21.578125 -7.46875 21.132812 -5.816406 20.25 -4.359375 C 19.375 -2.910156 18.160156 -1.773438 16.609375 -0.953125 C 15.066406 -0.128906 13.316406 0.28125 11.359375 0.28125 Z M 11.359375 -4.15625 C 12.742188 -4.15625 13.878906 -4.617188 14.765625 -5.546875 C 15.648438 -6.484375 16.09375 -7.738281 16.09375 -9.3125 C 16.09375 -10.882812 15.648438 -12.132812 14.765625 -13.0625 C 13.878906 -14 12.742188 -14.46875 11.359375 -14.46875 C 9.972656 -14.46875 8.828125 -14 7.921875 -13.0625 C 7.023438 -12.132812 6.578125 -10.882812 6.578125 -9.3125 C 6.578125 -7.738281 7.023438 -6.484375 7.921875 -5.546875 C 8.828125 -4.617188 9.972656 -4.15625 11.359375 -4.15625 Z M 11.359375 -4.15625 "/></g></g></g><g fill="#313133" fill-opacity="1"><g transform="translate(156.217267, 270.139744)"><g><path d="M 2.5 -25.6875 L 7.890625 -25.6875 L 7.890625 0 L 2.5 0 Z M 2.5 -25.6875 "/></g></g></g><g fill="#313133" fill-opacity="1"><g transform="translate(166.63702, 270.139744)"><g><path d="M 20.671875 -12.609375 C 22.054688 -12.171875 23.140625 -11.4375 23.921875 -10.40625 C 24.710938 -9.375 25.109375 -8.109375 25.109375 -6.609375 C 25.109375 -4.484375 24.28125 -2.847656 22.625 -1.703125 C 20.976562 -0.566406 18.570312 0 15.40625 0 L 2.875 0 L 2.875 -24.234375 L 14.71875 -24.234375 C 17.664062 -24.234375 19.929688 -23.664062 21.515625 -22.53125 C 23.097656 -21.40625 23.890625 -19.875 23.890625 -17.9375 C 23.890625 -16.757812 23.601562 -15.707031 23.03125 -14.78125 C 22.46875 -13.863281 21.679688 -13.140625 20.671875 -12.609375 Z M 8.453125 -20.015625 L 8.453125 -14.296875 L 14.015625 -14.296875 C 15.398438 -14.296875 16.453125 -14.535156 17.171875 -15.015625 C 17.890625 -15.503906 18.25 -16.222656 18.25 -17.171875 C 18.25 -18.117188 17.890625 -18.828125 17.171875 -19.296875 C 16.453125 -19.773438 15.398438 -20.015625 14.015625 -20.015625 Z M 15 -4.21875 C 16.46875 -4.21875 17.578125 -4.457031 18.328125 -4.9375 C 19.078125 -5.425781 19.453125 -6.179688 19.453125 -7.203125 C 19.453125 -9.210938 17.96875 -10.21875 15 -10.21875 L 8.453125 -10.21875 L 8.453125 -4.21875 Z M 15 -4.21875 "/></g></g></g><g fill="#313133" fill-opacity="1"><g transform="translate(193.119116, 270.139744)"><g><path d="M 21.265625 -18.625 L 21.265625 0 L 16.140625 0 L 16.140625 -2.21875 C 15.421875 -1.40625 14.5625 -0.785156 13.5625 -0.359375 C 12.570312 0.0664062 11.503906 0.28125 10.359375 0.28125 C 7.910156 0.28125 5.96875 -0.421875 4.53125 -1.828125 C 3.101562 -3.242188 2.390625 -5.335938 2.390625 -8.109375 L 2.390625 -18.625 L 7.796875 -18.625 L 7.796875 -8.90625 C 7.796875 -5.894531 9.050781 -4.390625 11.5625 -4.390625 C 12.851562 -4.390625 13.890625 -4.8125 14.671875 -5.65625 C 15.460938 -6.5 15.859375 -7.753906 15.859375 -9.421875 L 15.859375 -18.625 Z M 21.265625 -18.625 "/></g></g></g><g fill="#313133" fill-opacity="1"><g transform="translate(216.901082, 270.139744)"><g><path d="M 21.46875 -25.6875 L 21.46875 0 L 16.3125 0 L 16.3125 -2.140625 C 14.96875 -0.523438 13.023438 0.28125 10.484375 0.28125 C 8.734375 0.28125 7.144531 -0.109375 5.71875 -0.890625 C 4.300781 -1.679688 3.1875 -2.800781 2.375 -4.25 C 1.570312 -5.707031 1.171875 -7.394531 1.171875 -9.3125 C 1.171875 -11.226562 1.570312 -12.910156 2.375 -14.359375 C 3.1875 -15.816406 4.300781 -16.9375 5.71875 -17.71875 C 7.144531 -18.507812 8.734375 -18.90625 10.484375 -18.90625 C 12.867188 -18.90625 14.726562 -18.15625 16.0625 -16.65625 L 16.0625 -25.6875 Z M 11.421875 -4.15625 C 12.785156 -4.15625 13.914062 -4.617188 14.8125 -5.546875 C 15.71875 -6.484375 16.171875 -7.738281 16.171875 -9.3125 C 16.171875 -10.882812 15.71875 -12.132812 14.8125 -13.0625 C 13.914062 -14 12.785156 -14.46875 11.421875 -14.46875 C 10.035156 -14.46875 8.890625 -14 7.984375 -13.0625 C 7.085938 -12.132812 6.640625 -10.882812 6.640625 -9.3125 C 6.640625 -7.738281 7.085938 -6.484375 7.984375 -5.546875 C 8.890625 -4.617188 10.035156 -4.15625 11.421875 -4.15625 Z M 11.421875 -4.15625 "/></g></g></g><g fill="#313133" fill-opacity="1"><g transform="translate(240.856128, 270.139744)"><g><path d="M 21.46875 -25.6875 L 21.46875 0 L 16.3125 0 L 16.3125 -2.140625 C 14.96875 -0.523438 13.023438 0.28125 10.484375 0.28125 C 8.734375 0.28125 7.144531 -0.109375 5.71875 -0.890625 C 4.300781 -1.679688 3.1875 -2.800781 2.375 -4.25 C 1.570312 -5.707031 1.171875 -7.394531 1.171875 -9.3125 C 1.171875 -11.226562 1.570312 -12.910156 2.375 -14.359375 C 3.1875 -15.816406 4.300781 -16.9375 5.71875 -17.71875 C 7.144531 -18.507812 8.734375 -18.90625 10.484375 -18.90625 C 12.867188 -18.90625 14.726562 -18.15625 16.0625 -16.65625 L 16.0625 -25.6875 Z M 11.421875 -4.15625 C 12.785156 -4.15625 13.914062 -4.617188 14.8125 -5.546875 C 15.71875 -6.484375 16.171875 -7.738281 16.171875 -9.3125 C 16.171875 -10.882812 15.71875 -12.132812 14.8125 -13.0625 C 13.914062 -14 12.785156 -14.46875 11.421875 -14.46875 C 10.035156 -14.46875 8.890625 -14 7.984375 -13.0625 C 7.085938 -12.132812 6.640625 -10.882812 6.640625 -9.3125 C 6.640625 -7.738281 7.085938 -6.484375 7.984375 -5.546875 C 8.890625 -4.617188 10.035156 -4.15625 11.421875 -4.15625 Z M 11.421875 -4.15625 "/></g></g></g><g fill="#313133" fill-opacity="1"><g transform="translate(264.811174, 270.139744)"><g><path d="M 20.984375 -18.625 L 12.5625 1.140625 C 11.707031 3.285156 10.648438 4.796875 9.390625 5.671875 C 8.140625 6.554688 6.625 7 4.84375 7 C 3.875 7 2.914062 6.847656 1.96875 6.546875 C 1.019531 6.242188 0.25 5.828125 -0.34375 5.296875 L 1.625 1.453125 C 2.039062 1.828125 2.519531 2.113281 3.0625 2.3125 C 3.601562 2.519531 4.140625 2.625 4.671875 2.625 C 5.410156 2.625 6.007812 2.445312 6.46875 2.09375 C 6.9375 1.738281 7.351562 1.144531 7.71875 0.3125 L 7.796875 0.140625 L -0.28125 -18.625 L 5.296875 -18.625 L 10.53125 -5.984375 L 15.78125 -18.625 Z M 20.984375 -18.625 "/></g></g></g><g clip-path="url(#636e934861)"><path fill="#ffffff" d="M 153.390625 194.199219 C 149.609375 190.414062 149.605469 184.292969 153.390625 180.507812 L 178.058594 155.839844 C 178.621094 155.273438 179.539062 155.273438 180.105469 155.839844 L 191.75 167.484375 C 192.3125 168.050781 192.3125 168.964844 191.75 169.53125 L 167.082031 194.199219 C 163.300781 197.980469 157.175781 197.984375 153.390625 194.199219 Z M 179.082031 158.914062 L 155.4375 182.554688 C 152.789062 185.207031 152.789062 189.5 155.4375 192.148438 C 158.089844 194.800781 162.382812 194.800781 165.035156 192.148438 L 188.675781 168.507812 Z M 179.082031 158.914062 " fill-opacity="1" fill-rule="nonzero"/></g><path fill="#ffffff" d="M 184.851562 174.382812 L 173.207031 162.738281 C 172.640625 162.171875 172.640625 161.257812 173.207031 160.691406 C 173.773438 160.125 174.691406 160.125 175.257812 160.691406 L 186.898438 172.332031 C 187.464844 172.898438 187.464844 173.816406 186.898438 174.382812 C 186.332031 174.949219 185.414062 174.949219 184.851562 174.382812 Z M 184.851562 174.382812 " fill-opacity="1" fill-rule="nonzero"/><path fill="#ffffff" d="M 179.730469 179.503906 L 168.085938 167.859375 C 167.519531 167.296875 167.519531 166.378906 168.085938 165.8125 C 168.652344 165.246094 169.570312 165.246094 170.132812 165.8125 L 181.777344 177.453125 C 182.34375 178.019531 182.34375 178.9375 181.777344 179.503906 C 181.210938 180.070312 180.292969 180.070312 179.730469 179.503906 Z M 179.730469 179.503906 " fill-opacity="1" fill-rule="nonzero"/><path fill="#ffffff" d="M 187.113281 166.945312 L 180.644531 160.476562 C 180.078125 159.910156 180.078125 158.992188 180.644531 158.429688 L 204.910156 134.160156 L 206.097656 130.605469 C 206.191406 130.316406 206.378906 130.0625 206.628906 129.882812 L 215.683594 123.417969 C 216.261719 123.003906 217.050781 123.070312 217.550781 123.570312 L 224.019531 130.039062 C 224.519531 130.539062 224.585938 131.328125 224.171875 131.90625 L 217.703125 140.960938 C 217.527344 141.210938 217.273438 141.394531 216.984375 141.492188 L 213.425781 142.679688 L 189.160156 166.945312 C 188.597656 167.511719 187.679688 167.511719 187.113281 166.945312 Z M 183.71875 159.453125 L 188.136719 163.871094 L 211.621094 140.386719 C 211.78125 140.230469 211.972656 140.109375 212.1875 140.039062 L 215.621094 138.894531 L 221.101562 131.21875 L 216.371094 126.488281 L 208.695312 131.96875 L 207.550781 135.402344 C 207.480469 135.617188 207.359375 135.808594 207.203125 135.96875 Z M 183.71875 159.453125 " fill-opacity="1" fill-rule="nonzero"/><g clip-path="url(#5f021c37c5)"><path fill="#ffffff" d="M 203.15625 193.378906 C 199.691406 189.917969 198.59375 184.683594 200.308594 180.144531 L 187.113281 166.945312 C 186.546875 166.378906 186.546875 165.460938 187.113281 164.898438 C 187.679688 164.332031 188.59375 164.332031 189.160156 164.898438 L 202.871094 178.605469 C 203.402344 179.144531 203.546875 179.960938 203.238281 180.640625 C 201.621094 184.238281 202.410156 188.535156 205.203125 191.332031 C 207.550781 193.679688 210.917969 194.605469 214.066406 193.902344 L 209.648438 189.484375 C 209.082031 188.917969 209.082031 188 209.648438 187.433594 L 214.84375 182.238281 C 215.410156 181.671875 216.324219 181.671875 216.890625 182.238281 L 221.3125 186.65625 C 222.015625 183.507812 221.085938 180.140625 218.738281 177.796875 C 215.945312 175 211.648438 174.210938 208.046875 175.832031 C 207.367188 176.136719 206.554688 175.992188 206.023438 175.46875 L 192.304688 161.75 C 191.742188 161.1875 191.742188 160.269531 192.304688 159.703125 C 192.871094 159.136719 193.789062 159.136719 194.355469 159.703125 L 207.550781 172.902344 C 212.09375 171.183594 217.328125 172.285156 220.789062 175.746094 C 224.515625 179.472656 225.496094 185.175781 223.222656 189.9375 C 222.796875 190.835938 221.601562 191.046875 220.890625 190.335938 L 215.867188 185.3125 L 212.722656 188.457031 L 217.746094 193.484375 C 218.449219 194.1875 218.25 195.382812 217.34375 195.816406 C 212.566406 198.097656 206.867188 197.09375 203.15625 193.378906 Z M 203.15625 193.378906 " fill-opacity="1" fill-rule="nonzero"/></g><path fill="#ffffff" d="M 180.644531 160.476562 L 167.445312 147.277344 C 162.902344 148.996094 157.671875 147.894531 154.210938 144.433594 C 150.480469 140.707031 149.503906 135.003906 151.773438 130.242188 C 152.203125 129.34375 153.398438 129.136719 154.105469 129.84375 L 159.132812 134.867188 L 162.277344 131.722656 L 157.253906 126.699219 C 156.546875 125.992188 156.75 124.796875 157.652344 124.367188 C 162.414062 122.09375 168.117188 123.074219 171.84375 126.800781 C 175.304688 130.265625 176.40625 135.496094 174.6875 140.035156 L 187.886719 153.234375 C 188.453125 153.800781 188.453125 154.71875 187.886719 155.285156 C 187.320312 155.847656 186.402344 155.847656 185.835938 155.285156 L 172.128906 141.574219 C 171.597656 141.035156 171.453125 140.222656 171.761719 139.539062 C 173.378906 135.941406 172.589844 131.644531 169.792969 128.851562 C 167.449219 126.503906 164.082031 125.574219 160.933594 126.277344 L 165.351562 130.699219 C 165.917969 131.261719 165.917969 132.179688 165.351562 132.746094 L 160.15625 137.941406 C 159.882812 138.214844 159.515625 138.367188 159.132812 138.367188 C 158.746094 138.367188 158.378906 138.214844 158.105469 137.941406 L 153.6875 133.523438 C 152.984375 136.671875 153.910156 140.039062 156.257812 142.386719 C 159.054688 145.179688 163.351562 145.96875 166.953125 144.351562 C 167.628906 144.042969 168.445312 144.1875 168.976562 144.710938 L 182.691406 158.429688 C 183.257812 158.996094 183.257812 159.910156 182.691406 160.476562 C 182.125 161.042969 181.210938 161.042969 180.644531 160.476562 Z M 180.644531 160.476562 " fill-opacity="1" fill-rule="nonzero"/></svg>